<svg width="535" height="284" viewBox="0 0 535 284" fill="none" xmlns="http://www.w3.org/2000/svg">
<path d="M88.0273 231.5L90.2646 228.786H109.117L77.8027 276.077H51.2812L69.8145 253.594V50.4863H88.0273V231.5Z" fill="#878E94"/>
<path d="M449.104 231.499L446.868 228.786H428.016L459.33 276.077H485.852L467.318 253.594V50.4863H449.104V231.499Z" fill="#878E94"/>
<path d="M108.968 236.935L76.0557 283.826H50.8125V275.198H76.0557L108.968 228.946V236.935ZM459.496 275.198H484.738V283.826H459.496L428.262 236.056V228.786L459.496 275.198ZM499.277 53.123H448.437L447.673 253.391L441.442 244.443V53.123H94.1094V244.443L87.8789 253.391L87.1152 53.123H36.5938V34.5898H499.277V53.123Z" fill="#595857"/>
<path d="M46.8116 0L0 34.5895L534.499 34.4896L490.324 0H46.8116Z" fill="#D89A61"/>
<path d="M0.164062 46.6521V34.5098L534.503 34.5098V46.6521H0.164062Z" fill="#B2703D"/>
<mask id="mask0_402_33642" style="mask-type:alpha" maskUnits="userSpaceOnUse" x="0" y="0" width="535" height="35">
<path d="M46.9757 0L0.164062 34.5895L534.663 34.4896L490.488 0H46.9757Z" fill="#D89A61"/>
</mask>
<g mask="url(#mask0_402_33642)">
<path d="M35.4728 8.3079C54.549 9.12181 83.0566 10.0038 108.248 10.0904C143.266 10.2109 181.791 5.67507 216.799 4.8608C272.541 3.56427 334.126 3.00355 331.68 6.3907C327.526 12.1423 218.565 9.90562 210.896 13.101C204.761 15.6572 74.1363 16.2963 9.59063 16.2963M8.3125 28.4386C11.8274 28.7581 61.6745 17.5745 88.1958 23.0065C114.717 28.4386 183.736 28.4386 189.807 28.4386C195.878 28.4386 352.13 17.8942 362.675 20.4504C373.219 23.0065 500.074 27.7995 505.826 26.5213C510.427 25.4988 521.802 26.0953 526.915 26.5213" stroke="#AF723D" stroke-width="2"/>
<path d="M500.716 8.30841C470.254 7.2433 405.879 4.98526 392.075 4.47401C380.289 4.03751 398.095 11.8357 409.872 12.4647C451.153 14.6697 510.796 17.6969 514.773 17.255" stroke="#AF723D" stroke-width="2"/>
</g>
</svg>
