<svg width="160" height="158" viewBox="0 0 160 158" fill="none" xmlns="http://www.w3.org/2000/svg">
<path d="M48.9126 130.768C27.299 135.785 23.6646 102.464 24.5491 85.1768H73.0362L67.9705 130.768H48.9126Z" fill="#AAAAB4"/>
<ellipse cx="48.7967" cy="85.0563" rx="24.4842" ry="3.49774" fill="#433B36"/>
<path d="M23.9693 70.1335C29.7162 80.9541 39.3849 83.4367 43.5008 83.3254C48.7739 85.9973 58.8372 83.882 63.2097 82.4904C63.5436 80.0858 69.249 74.6421 72.0599 72.2208L72.5608 43.2489C68.6868 41.8462 62.3191 47.34 59.6195 50.2623C59.0851 44.9185 67.6904 30.7806 72.0599 24.3796L70.4735 14.444C66.3991 14.3772 61.9851 28.1089 60.2874 34.9831L59.035 33.0628C61.5064 13.9595 56.2241 3.06123 53.2741 0C46.5947 1.93703 45.8154 18.9529 46.2607 27.2187C38.6462 16.1978 29.9518 14.5556 26.5565 15.1121C25.8217 18.7858 34.5439 27.5526 38.9969 31.4768C35.3937 28.6717 30.5378 28.0814 28.5603 28.1368C27.8256 28.8047 28.8664 32.9793 29.4787 34.9831C24.2688 29.7732 14.8397 29.1386 10.7764 29.4726C10.3756 31.2093 20.5172 37.8777 25.6381 40.9948H20.7955C18.2565 45.0024 25.5264 53.2961 29.4787 56.9419C18.261 50.5297 10.6666 53.8804 8.27163 56.3572C19.0923 56.2236 31.2599 64.7065 35.9911 68.9646L26.5565 63.4542C10.2754 60.1145 2.01763 72.5075 0.923308 73.1393C-1.88204 75.544 2.36961 75.9224 4.84611 75.8111C11.7927 71.6031 20.4893 70.2727 23.9693 70.1335Z" fill="#96B442"/>
<mask id="mask0_410_5424" style="mask-type:alpha" maskUnits="userSpaceOnUse" x="0" y="0" width="73" height="85">
<path d="M23.9693 70.1335C29.7162 80.9541 39.3849 83.4367 43.5008 83.3254C48.7739 85.9973 58.8372 83.882 63.2097 82.4904C63.5436 80.0858 69.249 74.6421 72.0599 72.2208L72.5608 43.2489C68.6868 41.8462 62.3191 47.34 59.6195 50.2623C59.0851 44.9185 67.6904 30.7806 72.0599 24.3796L70.4735 14.444C66.3991 14.3772 61.9851 28.1089 60.2874 34.9831L59.035 33.0628C61.5064 13.9595 56.2241 3.06123 53.2741 0C46.5947 1.93703 45.8154 18.9529 46.2607 27.2187C38.6462 16.1978 29.9518 14.5556 26.5565 15.1121C25.8217 18.7858 34.5439 27.5526 38.9969 31.4768C35.3937 28.6717 30.5378 28.0814 28.5603 28.1368C27.8256 28.8047 28.8664 32.9793 29.4787 34.9831C24.2688 29.7732 14.8397 29.1386 10.7764 29.4726C10.3756 31.2093 20.5172 37.8777 25.6381 40.9948H20.7955C18.2565 45.0024 25.5264 53.2961 29.4787 56.9419C18.261 50.5297 10.6666 53.8804 8.27163 56.3572C19.0923 56.2236 31.2599 64.7065 35.9911 68.9646L26.5565 63.4542C10.2754 60.1145 2.01763 72.5075 0.923308 73.1393C-1.88204 75.544 2.36961 75.9224 4.84611 75.8111C11.7927 71.6031 20.4893 70.2727 23.9693 70.1335Z" fill="#96B442"/>
</mask>
<g mask="url(#mask0_410_5424)">
<path d="M14.6596 62.7302C15.582 62.6549 16.5558 62.6035 17.5605 62.5854L11.5195 60.3452C10.8115 60.0827 10.1594 59.6889 9.59751 59.1845L9.39647 59.004C6.57477 56.4709 6.74254 51.9305 9.86799 49.7835C10.2302 49.5346 10.4479 49.3976 10.4479 49.4275C10.4479 49.5569 23.0929 53.9823 30.0042 56.3837C30.4335 56.5329 30.8473 56.724 31.2119 56.9954C33.0723 58.38 36.1396 61.5904 37.7602 66.4184C38.1974 67.7209 38.9248 68.9207 39.9641 69.8193C44.2724 73.5438 50.9001 80.3636 52.1912 85.9974C51.3225 72.7206 42.1358 44.103 12.519 33.5908C11.1941 33.1206 10.0332 32.2473 9.27608 31.0627L3.9375 22.7101L27.2409 32.3168C28.1633 32.6971 28.9767 33.3002 29.6026 34.0771C32.8717 38.1349 38.2859 45.0532 39.6673 47.5907V41.0783C45.06 45.0052 53.6927 54.8582 55.2236 68.464C56.3029 67.3651 63.2436 51.7715 67.4474 42.1265C68.1343 40.5506 69.6174 39.4718 71.3283 39.3049C73.6668 39.0768 75.818 40.6007 76.3784 42.8825L76.8777 44.9154C77.4081 47.0747 76.7008 49.3504 75.0398 50.8286L55.2236 68.464C55.7311 72.9744 55.4582 77.8972 54.028 83.1532C56.9781 75.3067 64.6483 59.48 71.7284 58.9457C78.1781 58.4589 77.3575 65.1407 75.8559 69.4483C75.58 70.2398 75.0872 70.9319 74.4776 71.5072L61.885 83.3923C61.009 84.2192 59.9043 84.7631 58.7148 84.9535L52.1912 85.9974L41.5764 83.1532C37.2641 75.7938 26.1834 62.2288 15.1767 64.8578C14.9248 64.9179 14.6576 64.9072 14.4159 64.8142C13.2762 64.3758 13.4425 62.8296 14.6596 62.7302Z" fill="#6B7F42"/>
<path d="M54.028 59.9479C54.028 60.7265 66.4174 37.7338 73.1481 25.1394C73.5344 24.4165 74.0632 23.7826 74.7047 23.2723L77.7207 20.8732C79.7295 19.2753 80.4993 16.5767 79.636 14.1595L79.5452 13.9053C78.5173 11.0272 75.4904 9.38166 72.5161 10.0839L67.2251 11.333C66.3039 11.5505 65.5901 12.2786 65.3909 13.2039L61.4355 31.5772C61.3213 32.1077 60.5405 32.0246 60.5405 31.482C60.5405 31.0578 60.0094 30.8666 59.7391 31.1935L53.3601 38.9075L52.1912 25.2149L51.1893 38.9075L46.9157 26.8785C46.7596 26.439 46.5541 26.0152 46.2895 25.6311C40.3854 17.0589 31.1178 15.4245 27.1435 15.6966C27.0099 22.2424 41.8938 33.8979 49.3525 38.9075C57.1286 44.9187 54.028 58.9457 54.028 59.9479Z" fill="#6B7F42"/>
</g>
<path d="M69.6094 7.95214C69.6094 5.35485 71.5992 3.1782 74.1914 3.01555C79.4597 2.68499 83.6195 2.68895 88.9018 3.01892C91.4967 3.18101 93.4905 5.35858 93.4905 7.95854V119.041C93.4905 121.802 91.2519 124.041 88.4905 124.041H74.6094C71.848 124.041 69.6094 121.802 69.6094 119.041V7.95214Z" fill="#F0D52A"/>
<path d="M93.4922 16.0151C93.4922 14.4526 94.6927 13.1487 96.2514 13.0387C103.459 12.5298 108.459 12.536 115.688 13.0413C117.249 13.1503 118.451 14.4547 118.451 16.0188V130.931C118.451 132.588 117.108 133.931 115.451 133.931H96.4922C94.8353 133.931 93.4922 132.588 93.4922 130.931V16.0151Z" fill="#BD283C"/>
<path d="M118.445 33.483C118.445 31.933 119.628 30.6342 121.173 30.5132C127.228 30.0391 131.531 30.0449 137.604 30.5159C139.151 30.6359 140.336 31.9354 140.336 33.4871V147.925C140.336 149.582 138.993 150.925 137.336 150.925H121.445C119.788 150.925 118.445 149.582 118.445 147.925V33.483Z" fill="#A3877B"/>
<rect x="128.016" y="90.7729" width="2.75899" height="23.345" rx="1.3795" fill="#5B3400"/>
<path d="M62.0091 124.004L156.902 121.58C158.333 121.544 159.4 122.889 159.039 124.274C158.935 124.673 158.719 125.033 158.417 125.312L144.869 137.824C143.754 138.854 142.29 139.423 140.773 139.416L42.6302 138.999C40.8293 138.991 39.0547 139.758 38.1536 141.318C35.4111 146.064 36.4685 150.221 38.4565 152.488C39.2162 153.354 40.3971 153.636 41.5491 153.629L137.988 153.002C139.501 152.992 140.955 152.411 142.057 151.376L156.054 138.228C156.495 137.814 157.088 137.599 157.692 137.636L157.828 137.644C158.914 137.709 159.76 138.608 159.76 139.695C159.76 140.268 159.521 140.815 159.1 141.204L142.656 156.407C142.099 156.922 141.368 157.207 140.609 157.205L39.0693 156.869C38.004 156.866 36.9333 156.604 36.0941 155.948C28.7556 150.21 32.8318 139.228 37.4425 136.349L59.3457 124.704C60.1672 124.268 61.079 124.028 62.0091 124.004Z" fill="#3F3E4B"/>
<path d="M133.594 119.397L147.095 110.532V120.241L133.713 131.277L133.594 119.397Z" fill="#C3C2C0"/>
<path d="M47.2336 120.81C47.7271 119.881 48.717 119.337 49.7687 119.337L133.588 119.382L133.73 131.277H49.6254C48.6524 131.277 47.7224 130.814 47.2215 129.98C45.2388 126.678 45.3819 124.295 47.2336 120.81Z" fill="#EBEDEB"/>
<path d="M38.2078 140.606C38.7133 139.681 39.702 139.135 40.7555 139.137L140.339 139.368V153.64H40.6087C39.6357 153.64 38.7092 153.174 38.195 152.348C35.5429 148.087 35.7417 145.116 38.2078 140.606Z" fill="#EBEDEB"/>
<rect x="48.7969" y="123.075" width="82.4984" height="0.964894" rx="0.482447" fill="#9C9D98"/>
<rect x="39.9375" y="143.675" width="96.6326" height="1.17227" rx="0.586137" fill="#9C9D98"/>
<rect x="87.2734" y="126.935" width="44.8676" height="0.964894" rx="0.482447" fill="#9C9D98"/>
<rect x="86.6797" y="148.365" width="49.888" height="1.17227" rx="0.586137" fill="#9C9D98"/>
<path d="M67.3178 106.925L147.015 107.506C147.858 107.512 148.538 108.197 148.538 109.04C148.538 109.557 148.278 110.039 147.846 110.323L135.247 118.587C134.262 119.233 133.108 119.575 131.93 119.57L51.5156 119.228C49.7146 119.22 47.9194 119.98 47.0844 121.576C45.2203 125.139 45.9336 128.256 47.3791 130.091C48.091 130.994 49.2814 131.274 50.4317 131.267L132.039 130.807C133.429 130.799 134.773 130.309 135.842 129.42L146.205 120.801C146.523 120.537 146.924 120.392 147.338 120.392H147.819C148.532 120.392 149.109 120.97 149.109 121.682C149.109 122.051 148.952 122.401 148.677 122.646L137.698 132.413C136.6 133.391 135.181 133.931 133.71 133.931H48.3796C47.3075 133.931 46.2251 133.677 45.4016 132.991C39.6792 128.22 42.9964 119.384 46.7421 117.045L64.4575 107.627C65.3378 107.159 66.3208 106.917 67.3178 106.925Z" fill="#6C6877"/>
<path d="M140.336 139.41L156.438 126.965V138.45L140.336 153.604V139.41Z" fill="#C3C2C0"/>
<path d="M75.7139 86.4426L75.7036 83.7543L77.6881 83.7637L77.6983 86.435C77.7009 87.1022 77.8528 87.6641 78.1542 88.1209C78.4613 88.5777 78.9064 88.9208 79.4897 89.1504C80.0729 89.3856 80.7772 89.5017 81.6027 89.4985L82.2048 89.4962C82.838 89.4937 83.3946 89.4238 83.8746 89.2862C84.3547 89.1544 84.7582 88.9578 85.0851 88.6964C85.412 88.4351 85.6567 88.1147 85.8192 87.7353C85.9874 87.3559 86.0705 86.9202 86.0686 86.4283L86.058 83.6637L88.0509 83.6561L88.0615 86.4207C88.0647 87.2461 87.9262 88.0014 87.6462 88.6866C87.3718 89.3774 86.9755 89.9754 86.4573 90.4806C85.9391 90.9857 85.3187 91.3754 84.5961 91.6495C83.8791 91.9293 83.0797 92.0709 82.1977 92.0743L81.6125 92.0765C80.7362 92.0799 79.9357 91.9445 79.211 91.6702C78.4863 91.4016 77.8629 91.0167 77.3408 90.5156C76.8244 90.02 76.4236 89.4251 76.1382 88.7308C75.8585 88.0421 75.7171 87.2794 75.7139 86.4426ZM88.0566 85.1486L75.7091 85.196L75.6993 82.6519L88.0469 82.6045L88.0566 85.1486Z" fill="#5B3400"/>
<path d="M77.6752 79.2748L75.6907 79.2824L75.6669 73.0663L77.6513 73.0587L77.6752 79.2748ZM88.0176 73.8415L75.67 73.8889L75.6603 71.3447L88.0078 71.2974L88.0176 73.8415Z" fill="#5B3400"/>
<path d="M87.9863 67.0039L75.6388 67.0513L75.629 64.5156L87.9766 64.4683L87.9863 67.0039Z" fill="#5B3400"/>
<path d="M87.9563 57.7586L87.966 60.2943L79.8078 60.3256C78.858 60.3292 78.0572 60.1288 77.4055 59.7242C76.7538 59.3253 76.2626 58.7703 75.932 58.0592C75.6013 57.3537 75.4343 56.5402 75.4307 55.6187C75.4272 54.6971 75.588 53.8767 75.9132 53.1575C76.2383 52.4438 76.7252 51.8823 77.3738 51.4727C78.0225 51.0688 78.8217 50.865 79.7715 50.8614L87.9297 50.8301L87.9395 53.3742L79.7813 53.4055C79.2272 53.4076 78.7752 53.497 78.4254 53.6736C78.0755 53.8502 77.8193 54.1028 77.6566 54.4313C77.4939 54.7655 77.4134 55.1588 77.4152 55.6111C77.4169 56.0747 77.5004 56.4673 77.6656 56.7889C77.8308 57.1162 78.089 57.364 78.4402 57.5322C78.7914 57.7061 79.244 57.792 79.7981 57.7899L87.9563 57.7586Z" fill="#5B3400"/>
<path d="M80.9728 42.7975L80.9607 39.6258L82.7076 39.6021L82.7178 42.265C82.7196 42.7342 82.7804 43.1184 82.9003 43.4176C83.0258 43.7168 83.2048 43.9394 83.4371 44.0855C83.6752 44.2373 83.9638 44.3125 84.303 44.3112C84.6875 44.3097 84.9981 44.235 85.235 44.0871C85.4719 43.9449 85.6435 43.7209 85.7498 43.4152C85.856 43.1151 85.9083 42.7276 85.9064 42.2527L85.8997 40.4888L75.545 40.5285L75.5353 37.9844L87.8828 37.937L87.8993 42.2451C87.9021 42.9631 87.8367 43.605 87.7032 44.1709C87.5697 44.7425 87.3652 45.2266 87.0897 45.6235C86.8142 46.0203 86.4648 46.3241 86.0416 46.5349C85.624 46.7457 85.1269 46.8522 84.5502 46.8544C84.0414 46.8564 83.5717 46.7423 83.1412 46.5121C82.7106 46.2876 82.3587 45.93 82.0854 45.4391C81.8122 44.954 81.6599 44.3185 81.6287 43.5328L80.9728 42.7975ZM75.5534 42.708L75.539 38.9512L77.5272 39.9358L77.5378 42.7004C77.5395 43.147 77.6116 43.5114 77.754 43.7936C77.9021 44.0757 78.1008 44.2841 78.3501 44.4188C78.5994 44.5536 78.8851 44.6203 79.2074 44.6191C79.5692 44.6177 79.8828 44.5543 80.148 44.4289C80.4133 44.3091 80.6161 44.1161 80.7564 43.8499C80.9024 43.5836 80.9745 43.2328 80.9728 42.7975L80.9634 40.3466L82.7105 40.3569L82.7222 43.4098L82.0375 43.9976C82.0517 44.7495 81.9212 45.355 81.6459 45.814C81.3763 46.2786 81.0242 46.6163 80.5897 46.8272C80.1552 47.0437 79.6892 47.1529 79.1917 47.1548C78.4002 47.1579 77.7324 46.988 77.1883 46.6452C76.6499 46.3024 76.2437 45.7979 75.9698 45.1319C75.6959 44.4714 75.5571 43.6635 75.5534 42.708Z" fill="#5B3400"/>
<path d="M111.298 83.3967L100.322 83.4388L100.313 81.1774L111.289 81.1353L111.298 83.3967ZM111.323 89.97L105.886 85.6413L103.178 83.1414L105.317 82.7261L107.646 84.4133L111.312 87.1959L111.323 89.97ZM100.338 87.4416L105.398 84.1883L106.807 85.8563L100.348 90.1177L100.338 87.4416Z" fill="#5B3400"/>
<path d="M111.276 77.4699L100.301 77.512L100.292 75.2505L107.633 70.8124L100.275 70.8407L100.267 68.5792L111.242 68.5371L111.251 70.7986L103.903 75.2442L111.268 75.2159L111.276 77.4699Z" fill="#5B3400"/>
<path d="M111.227 64.7207L100.252 64.7628L100.243 62.5089L111.219 62.4668L111.227 64.7207Z" fill="#5B3400"/>
<path d="M106.722 57.054L104.958 57.0608L104.936 51.3318L106.7 51.325L106.722 57.054ZM111.173 51.9787L100.197 52.0209L100.188 49.7594L111.164 49.7173L111.173 51.9787ZM111.198 58.65L100.223 58.6921L100.214 56.4382L111.19 56.3961L111.198 58.65Z" fill="#5B3400"/>
<path d="M111.139 43.3532L100.163 43.3953L100.154 41.1414L111.13 41.0992L111.139 43.3532ZM111.152 46.7303L109.38 46.7371L109.346 37.7817L111.117 37.7749L111.152 46.7303Z" fill="#5B3400"/>
<path d="M125.285 84.697L123.521 84.7038L123.499 78.8617L125.263 78.8549L125.285 84.697ZM134.477 79.5583L123.502 79.6004L123.493 77.339L134.469 77.2969L134.477 79.5583ZM130.024 83.9175L128.305 83.9241L128.286 78.8433L130.004 78.8367L130.024 83.9175ZM134.497 84.6541L132.726 84.6609L132.703 78.8264L134.475 78.8196L134.497 84.6541Z" fill="#5B3400"/>
<path d="M125.253 76.1902L123.489 76.197L123.468 70.6715L125.232 70.6647L125.253 76.1902ZM134.446 71.3606L123.471 71.4027L123.462 69.1412L134.438 69.0991L134.446 71.3606Z" fill="#5B3400"/>
<path d="M132.542 63.3506L123.432 60.4004L123.423 57.9957L134.414 62.0318L134.42 63.562L132.542 63.3506ZM123.453 65.8656L132.54 62.838L134.416 62.5896L134.422 64.1349L123.462 68.2778L123.453 65.8656ZM127.538 65.7142L125.767 65.721L125.745 59.9242L127.516 59.9174L127.538 65.7142Z" fill="#5B3400"/>
<path d="M127.048 55.3247L127.057 57.5786C126.318 57.5362 125.661 57.3352 125.087 56.9756C124.513 56.621 124.064 56.1227 123.74 55.4806C123.416 54.8436 123.252 54.0754 123.248 53.1758C123.246 52.4722 123.364 51.8411 123.603 51.2823C123.847 50.7236 124.197 50.2448 124.653 49.846C125.109 49.4523 125.66 49.1511 126.308 48.9426C126.955 48.7341 127.681 48.6283 128.485 48.6252L129.246 48.6223C130.051 48.6192 130.777 48.7219 131.426 48.9305C132.08 49.1441 132.637 49.4485 133.096 49.8438C133.555 50.2441 133.908 50.7226 134.157 51.2795C134.405 51.8364 134.53 52.4591 134.533 53.1476C134.537 54.0622 134.374 54.8342 134.044 55.4637C133.715 56.0982 133.26 56.5899 132.678 56.9389C132.097 57.2929 131.434 57.5065 130.69 57.5798L130.682 55.3183C131.124 55.2915 131.498 55.2021 131.804 55.0502C132.115 54.8982 132.348 54.6686 132.502 54.3615C132.662 54.0593 132.741 53.657 132.739 53.1545C132.738 52.7775 132.666 52.4487 132.524 52.1678C132.382 51.8869 132.168 51.6515 131.881 51.4616C131.593 51.2718 131.231 51.1299 130.794 51.0361C130.361 50.9473 129.853 50.904 129.27 50.9063L128.494 50.9093C127.926 50.9114 127.426 50.9561 126.994 51.0432C126.567 51.1302 126.206 51.2623 125.91 51.4393C125.619 51.6214 125.399 51.8534 125.25 52.1354C125.105 52.4224 125.033 52.7669 125.035 53.1689C125.037 53.6413 125.114 54.0305 125.266 54.3365C125.417 54.6425 125.642 54.8753 125.939 55.035C126.236 55.1997 126.606 55.2963 127.048 55.3247Z" fill="#5B3400"/>
<path d="M126.238 45.3202C126.434 45.3194 126.61 45.2886 126.765 45.2277C126.926 45.1718 127.071 45.0657 127.201 44.9094C127.337 44.7531 127.469 44.534 127.598 44.2521C127.728 43.9701 127.862 43.6053 128.001 43.1575C128.16 42.6593 128.339 42.1862 128.539 41.7382C128.738 41.2952 128.97 40.9023 129.235 40.5596C129.505 40.2218 129.818 39.9543 130.174 39.7569C130.53 39.5646 130.945 39.4675 131.417 39.4657C131.874 39.4639 132.289 39.5628 132.662 39.7624C133.04 39.962 133.362 40.2422 133.63 40.603C133.903 40.9638 134.113 41.3902 134.261 41.8821C134.408 42.3791 134.483 42.924 134.486 43.517C134.489 44.3261 134.346 45.0328 134.057 45.6369C133.767 46.2411 133.37 46.71 132.863 47.0436C132.357 47.3823 131.777 47.5529 131.124 47.5554L131.115 45.309C131.437 45.3078 131.718 45.2389 131.959 45.1022C132.205 44.9706 132.397 44.7689 132.537 44.497C132.677 44.2301 132.746 43.8931 132.744 43.486C132.743 43.094 132.681 42.7676 132.56 42.5068C132.443 42.2459 132.284 42.0505 132.082 41.9206C131.886 41.7907 131.664 41.7262 131.418 41.7272C131.232 41.7279 131.064 41.7738 130.914 41.8648C130.763 41.9608 130.623 42.1021 130.493 42.2885C130.363 42.475 130.241 42.7041 130.126 42.9759C130.012 43.2478 129.9 43.5623 129.791 43.9195C129.612 44.5182 129.411 45.0442 129.186 45.4973C128.962 45.9555 128.71 46.3384 128.429 46.6461C128.149 46.9537 127.831 47.1861 127.475 47.3432C127.118 47.5004 126.714 47.5799 126.262 47.5816C125.784 47.5834 125.357 47.4921 124.979 47.3076C124.602 47.1231 124.282 46.8555 124.019 46.5047C123.756 46.1539 123.556 45.735 123.419 45.2481C123.281 44.7611 123.211 44.2161 123.209 43.6131C123.207 43.0703 123.275 42.5349 123.414 42.0066C123.557 41.4784 123.774 40.9976 124.064 40.5643C124.354 40.1361 124.724 39.7929 125.176 39.5349C125.627 39.2768 126.162 39.1466 126.78 39.1443L126.789 41.4132C126.447 41.4146 126.158 41.4684 125.922 41.5749C125.686 41.6813 125.496 41.8303 125.351 42.0218C125.206 42.2184 125.101 42.45 125.037 42.7166C124.973 42.9882 124.941 43.2848 124.943 43.6064C124.944 43.9984 125.001 44.3198 125.112 44.5707C125.224 44.8266 125.378 45.0144 125.574 45.1343C125.771 45.2592 125.992 45.3211 126.238 45.3202Z" fill="#5B3400"/>
</svg>
