<svg width="229" height="220" viewBox="0 0 229 220" fill="none" xmlns="http://www.w3.org/2000/svg">
<path d="M24.129 9.75017C11.529 8.35017 8.40005 13.4167 8.06671 16L0.00696999 15C-0.13072 13.21 1.79589 10.7249 3.63514 8.9151C5.00916 7.56307 6.90401 6.96567 8.8306 6.90114L214.879 0L224.129 2.75L24.129 9.75017Z" fill="#BDBEC2"/>
<path d="M8 15.5L0 14V174.25C2.4 182.85 14 183.5 19.5 182.75C10.1 183.35 7.91667 179.667 8 177.75V15.5Z" fill="#6A6A72"/>
<path d="M7.50836 17.6508C7.54201 13.3714 10.9376 9.87629 15.2144 9.71914L220.4 2.17983C224.93 2.01336 228.694 5.64097 228.694 10.1744V148.366C228.694 152.378 225.722 155.769 221.745 156.296L15.3171 183.665C10.498 184.304 6.22766 180.533 6.26588 175.672L7.50836 17.6508Z" fill="#93939D"/>
<path d="M84.1484 174.75L102.273 108.125L112.398 108.875C113.19 129.125 114.773 169.75 114.773 170.25C114.773 170.75 94.3568 173.458 84.1484 174.75Z" fill="#6C6F74"/>
<path d="M107.445 112.562L102.602 107.688L143.195 105.375L148.633 109.188L107.445 112.562Z" fill="#C7CAD1"/>
<path d="M112.133 191.25L67.6328 198.25L105.383 214.375C112.783 216.775 114.216 210.875 114.133 208.375L112.133 191.25Z" fill="#92929A"/>
<path d="M44.8828 153.094L47.1953 152.844V159.875L44.8828 160.25V153.094Z" fill="#3D3E3F"/>
<path d="M52.3672 152.922L54.0703 152.797V157.828L52.3672 158.047V152.922Z" fill="#3D3E3F"/>
<path d="M58.2891 152.312L59.9922 152.187V157.219L58.2891 157.437V152.312Z" fill="#3D3E3F"/>
<path d="M64.2734 151.594L65.9766 151.469V153.984V156.5L64.2734 156.719V151.594Z" fill="#3D3E3F"/>
<path d="M70.5391 151.109L72.2422 150.984V156.016L70.5391 156.234V151.109Z" fill="#3D3E3F"/>
<path d="M27.0859 157.453L39.0234 157.188L39.1172 158.656L27.1797 159.016L27.0859 157.453Z" fill="#3D3E3F"/>
<path fill-rule="evenodd" clip-rule="evenodd" d="M133.947 51.2184C131.523 48.5937 127.99 49.3019 124.411 50.0195C123.909 50.12 123.407 50.2207 122.906 50.3125C112.883 46.4376 108.883 54.3125 108.883 62.5002C109.621 69.0431 112.604 74.2308 117.998 76.143C119.685 74.9444 121.771 74.2359 124.027 74.2359C125.715 74.2359 127.306 74.6319 128.707 75.3326C132.01 73.7222 134.364 70.9876 135.797 66.9919C133.202 64.8653 131.555 61.6961 131.555 58.1564C131.555 55.5545 132.444 53.1529 133.947 51.2184Z" fill="#5E5E66"/>
<path d="M127.033 45.4235C125.111 47.9953 123.258 48.4375 121.877 48.8272C121.877 47.375 121.757 45.4893 123.678 42.9175C125.599 40.3456 127.945 39.5137 128.834 39.5137C128.834 40.8125 128.954 42.8516 127.033 45.4235Z" fill="#5E5E66"/>
<path d="M107.633 112.75L102.633 107.75L113.383 206.5C113.783 214.3 109.716 215.417 107.633 215L67.6328 198.25V204.25L107.633 220C116.633 219.6 117.549 212.833 116.883 209.5L107.633 112.75Z" fill="#58575D"/>
<path d="M117.133 211L107.133 112.25L148.633 109L171.883 199.75C173.283 205.95 169.466 209.833 167.383 211L111.633 220C116.433 217.6 117.299 213 117.133 211Z" fill="#AFAEB3"/>
<path d="M145.633 151.5C145.633 157.713 141.128 162.75 135.57 162.75C130.013 162.75 125.508 157.713 125.508 151.5C125.508 145.287 130.013 140.25 135.57 140.25C141.128 140.25 145.633 145.287 145.633 151.5Z" fill="#676B6C"/>
</svg>
